<svg width="20" height="19" viewBox="0 0 20 19" fill="none" xmlns="http://www.w3.org/2000/svg">
<path d="M18.7986 11.4211C17.5717 16.1186 12.5873 18.9774 7.66558 17.806C2.74588 16.6349 -0.249053 11.8768 0.978358 7.17967C2.20469 2.48167 7.18905 -0.377347 12.1093 0.793757C17.0307 1.96486 20.0254 6.72347 18.7984 11.4212L18.7985 11.4211H18.7986Z" fill="#F7931A"/>
<path fill-rule="evenodd" clip-rule="evenodd" d="M13.9388 8.05048C14.1217 6.88357 13.191 6.25632 11.9183 5.83788L12.3312 4.2572L11.3231 4.01744L10.9212 5.5565C10.6562 5.49341 10.3841 5.43396 10.1136 5.37503L10.5184 3.82582L9.51104 3.58606L9.09795 5.16622C8.87865 5.11856 8.66327 5.07146 8.4543 5.02182L8.45546 5.01685L7.06538 4.6855L6.79723 5.7132C6.79723 5.7132 7.5451 5.87684 7.52934 5.88691C7.93753 5.98416 8.01135 6.24209 7.99909 6.44653L7.5288 8.24729C7.55691 8.25411 7.59337 8.26396 7.6336 8.27939L7.60432 8.27242L7.60427 8.2724C7.57941 8.26647 7.55357 8.2603 7.52705 8.25423L6.86786 10.7768C6.81797 10.8952 6.69135 11.0729 6.40596 11.0054C6.41607 11.0194 5.67332 10.8309 5.67332 10.8309L5.17285 11.9323L6.48463 12.2444C6.62828 12.2788 6.77023 12.3142 6.91075 12.3491L6.91084 12.3491L6.91102 12.3492C7.00912 12.3736 7.10653 12.3978 7.20331 12.4215L6.78618 14.0203L7.79304 14.26L8.20613 12.6782C8.48119 12.7495 8.74813 12.8152 9.00945 12.8772L8.59776 14.4516L9.60582 14.6913L10.0229 13.0955C11.7418 13.406 13.0343 13.2808 13.5783 11.7968C14.0167 10.6019 13.5565 9.91274 12.6522 9.46331C13.3108 9.31832 13.8069 8.9048 13.9392 8.05061L13.9389 8.05039L13.9388 8.05048ZM11.6356 11.1332C11.3498 12.2295 9.55214 11.7762 8.72967 11.5689C8.65568 11.5502 8.58959 11.5336 8.53319 11.5202L9.08673 9.40206C9.15546 9.41844 9.23945 9.43643 9.3346 9.45681C10.1853 9.63906 11.9284 10.0125 11.6356 11.1332H11.6356ZM9.50542 8.47375C10.1911 8.64843 11.687 9.0295 11.9475 8.03316H11.9476C12.2136 7.01416 10.7599 6.70693 10.0499 6.55688C9.97001 6.54 9.89954 6.52511 9.842 6.51142L9.34015 8.43245C9.38753 8.44372 9.44313 8.45789 9.50542 8.47375Z" fill="white"/>
</svg>
