<svg width="21" height="21" viewBox="0 0 21 21" fill="none" xmlns="http://www.w3.org/2000/svg">
<path d="M15.4969 19.2241H5.99003C3.928 19.2241 2.25519 17.5513 2.25519 15.4893V9.916C2.25519 7.85397 3.928 6.18115 5.99003 6.18115H15.4969C17.5589 6.18115 19.2318 7.85397 19.2318 9.916V11.1085C19.2318 11.448 18.9502 11.7296 18.6107 11.7296H16.9378C16.648 11.7296 16.383 11.8373 16.1925 12.036L16.1843 12.0443C15.9524 12.2679 15.8447 12.5743 15.8696 12.8889C15.9193 13.4355 16.441 13.8744 17.0372 13.8744H18.6107C18.9502 13.8744 19.2318 14.156 19.2318 14.4955V15.481C19.2318 17.5513 17.5589 19.2241 15.4969 19.2241ZM5.99003 7.42334C4.61534 7.42334 3.49738 8.54132 3.49738 9.916V15.4893C3.49738 16.864 4.61534 17.9819 5.99003 17.9819H15.4969C16.8716 17.9819 17.9896 16.864 17.9896 15.4893V15.1249H17.0372C15.7868 15.1249 14.7268 14.1974 14.6274 13.0049C14.5611 12.3258 14.8096 11.6551 15.3064 11.1665C15.7371 10.7276 16.3168 10.4874 16.9378 10.4874H17.9896V9.916C17.9896 8.54132 16.8716 7.42334 15.4969 7.42334H5.99003Z" fill="#B7ABF7"/>
<path d="M2.87628 11.2824C2.53675 11.2824 2.25519 11.0008 2.25519 10.6613V6.87683C2.25519 5.64292 3.03363 4.52491 4.18472 4.086L10.76 1.60163C11.4391 1.34491 12.1927 1.43604 12.7807 1.8501C13.3769 2.26417 13.7247 2.93494 13.7247 3.65541V6.80227C13.7247 7.14181 13.4432 7.42337 13.1036 7.42337C12.7641 7.42337 12.4825 7.14181 12.4825 6.80227V3.65541C12.4825 3.34072 12.3335 3.05087 12.0685 2.86868C11.8035 2.68649 11.4888 2.64508 11.1907 2.76102L4.61534 5.2454C3.94456 5.50211 3.48909 6.15636 3.48909 6.87683V10.6613C3.49738 11.0091 3.21581 11.2824 2.87628 11.2824Z" fill="#B7ABF7"/>
<path d="M17.0372 15.1248C15.7867 15.1248 14.7267 14.1973 14.6273 13.0048C14.5611 12.3174 14.8095 11.6467 15.3064 11.1581C15.7288 10.7275 16.3084 10.4873 16.9295 10.4873H18.652C19.4719 10.5121 20.1012 11.1581 20.1012 11.9531V13.659C20.1012 14.454 19.4719 15.0999 18.6769 15.1248H17.0372ZM18.6355 11.7295H16.9378C16.648 11.7295 16.383 11.8371 16.1925 12.0359C15.9523 12.2678 15.8364 12.5824 15.8695 12.8971C15.9192 13.4437 16.4409 13.8826 17.0372 13.8826H18.6603C18.768 13.8826 18.8673 13.7833 18.8673 13.659V11.9531C18.8673 11.8288 18.768 11.7378 18.6355 11.7295Z" fill="#B7ABF7"/>
<path d="M12.3997 10.9429H6.60284C6.26331 10.9429 5.98175 10.6613 5.98175 10.3218C5.98175 9.98225 6.26331 9.70068 6.60284 9.70068H12.3997C12.7393 9.70068 13.0208 9.98225 13.0208 10.3218C13.0208 10.6613 12.7393 10.9429 12.3997 10.9429Z" fill="#B7ABF7"/>
</svg>
