<svg width="24" height="22" viewBox="0 0 24 22" fill="none" xmlns="http://www.w3.org/2000/svg">
<path d="M22.7027 13.661C21.1636 19.5539 14.9108 23.1402 8.73656 21.6707C2.56489 20.2015 -1.1922 14.2326 0.347563 8.34017C1.88597 2.44661 8.13876 -1.13997 14.3111 0.329158C20.4849 1.79829 24.2418 7.76788 22.7025 13.6611L22.7026 13.661H22.7027Z" fill="#F7931A"/>
<path fill-rule="evenodd" clip-rule="evenodd" d="M16.6062 9.43305C16.8355 7.96919 15.668 7.18231 14.0714 6.65738L14.5894 4.67446L13.3248 4.37368L12.8206 6.3044C12.4882 6.22526 12.1468 6.15068 11.8075 6.07675L12.3153 4.13329L11.0516 3.83252L10.5333 5.8148C10.2582 5.75501 9.98804 5.69592 9.72589 5.63366L9.72735 5.62742L7.98352 5.21175L7.64713 6.50098C7.64713 6.50098 8.58532 6.70626 8.56555 6.71889C9.07762 6.84089 9.17022 7.16446 9.15484 7.42093L8.56487 9.67995C8.60013 9.6885 8.64587 9.70086 8.69634 9.72022L8.65961 9.71147C8.62841 9.70402 8.59597 9.69627 8.56267 9.68866L7.73573 12.8532C7.67315 13.0017 7.51431 13.2246 7.15629 13.14C7.16897 13.1575 6.2372 12.921 6.2372 12.921L5.60938 14.3027L7.25498 14.6943C7.43519 14.7375 7.61327 14.7818 7.78955 14.8256L7.79018 14.8258C7.91314 14.8564 8.03523 14.8868 8.15655 14.9164L7.63327 16.922L8.89636 17.2228L9.41457 15.2384C9.75963 15.3278 10.0945 15.4103 10.4223 15.4881L9.90586 17.4631L11.1705 17.7639L11.6937 15.762C13.85 16.1515 15.4714 15.9945 16.1539 14.1327C16.7038 12.6338 16.1265 11.7692 14.992 11.2054C15.8183 11.0235 16.4407 10.5048 16.6066 9.43321L16.6062 9.43294L16.6062 9.43305ZM13.717 13.3005C13.3585 14.6757 11.1034 14.1072 10.0716 13.847C9.9788 13.8236 9.89589 13.8027 9.82514 13.786L10.5195 11.1288C10.6058 11.1494 10.7111 11.1719 10.8305 11.1975C11.8977 11.4261 14.0844 11.8945 13.7171 13.3005H13.717ZM11.0448 9.96387C11.905 10.183 13.7816 10.661 14.1084 9.41116H14.1085C14.4422 8.13283 12.6185 7.74742 11.7278 7.55919C11.6276 7.53802 11.5392 7.51934 11.4671 7.50216L10.8375 9.91205C10.8969 9.92619 10.9667 9.94396 11.0448 9.96387Z" fill="white"/>
</svg>
