<svg width="35" height="36" viewBox="0 0 35 36" fill="none" xmlns="http://www.w3.org/2000/svg">
<circle opacity="0.4" cx="17.5" cy="18.2324" r="17.5" fill="#4B5563"/>
<path d="M24.4398 14.5815C24.4398 17.2895 22.2448 19.4845 19.5368 19.4845C19.4086 19.4845 19.2728 19.477 19.1446 19.4694C18.956 17.0783 17.04 15.1623 14.6489 14.9737C14.6413 14.8455 14.6338 14.7097 14.6338 14.5815C14.6338 11.8735 16.8288 9.67847 19.5368 9.67847C22.2448 9.67847 24.4398 11.8735 24.4398 14.5815Z" stroke="white" stroke-width="1.44828" stroke-linecap="round" stroke-linejoin="round"/>
<path d="M19.1596 19.8618C19.1596 22.5697 16.9645 24.7648 14.2565 24.7648C11.5486 24.7648 9.35352 22.5697 9.35352 19.8618C9.35352 17.1538 11.5486 14.9587 14.2565 14.9587C14.3848 14.9587 14.5205 14.9663 14.6488 14.9738C17.0399 15.1624 18.9559 17.0784 19.1445 19.4695C19.152 19.5978 19.1596 19.7335 19.1596 19.8618Z" stroke="white" stroke-width="1.44828" stroke-linecap="round" stroke-linejoin="round"/>
<path d="M12.0615 9.67847H10.1078C9.69296 9.67847 9.35352 10.0179 9.35352 10.4328V12.3864C9.35352 13.0578 10.1682 13.3972 10.6434 12.922L12.597 10.9683C13.0647 10.4931 12.7328 9.67847 12.0615 9.67847Z" stroke="white" stroke-width="1.44828" stroke-linecap="round" stroke-linejoin="round"/>
<path d="M21.7321 24.7649H23.6858C24.1007 24.7649 24.4401 24.4254 24.4401 24.0106V22.0569C24.4401 21.3856 23.6255 21.0461 23.1502 21.5213L21.1966 23.475C20.7289 23.9502 21.0608 24.7649 21.7321 24.7649Z" stroke="white" stroke-width="1.44828" stroke-linecap="round" stroke-linejoin="round"/>
</svg>
