<svg width="28" height="28" viewBox="0 0 28 28" fill="none" xmlns="http://www.w3.org/2000/svg">
<path d="M24.3139 18.429L22.9109 22.9904L20.1567 22.2661L24.3139 18.429Z" fill="#E4761B" stroke="#E4761B" stroke-width="0.16524"/>
<path d="M20.1567 22.2661L22.8132 18.7662L24.3139 18.429L20.1567 22.2661Z" fill="#E4761B" stroke="#E4761B" stroke-width="0.16524"/>
<path d="M22.2496 14.9899L24.3138 18.4289L22.8131 18.7662L22.2496 14.9899ZM22.2496 14.9899L23.5779 14.1052L24.3138 18.4289L22.2496 14.9899Z" fill="#F6851B" stroke="#F6851B" stroke-width="0.16524"/>
<path d="M20.5592 12.3914L24.3771 10.8875L24.1874 11.7113L20.5592 12.3914ZM24.0666 12.701L20.5592 12.3914L24.1874 11.7113L24.0666 12.701Z" fill="#763D16" stroke="#763D16" stroke-width="0.16524"/>
<path d="M24.0666 12.701L23.5779 14.1054L20.5592 12.3914L24.0666 12.701ZM24.8313 11.2358L24.1874 11.7113L24.3771 10.8875L24.8313 11.2358ZM24.0666 12.701L24.1874 11.7113L24.6991 12.1204L24.0666 12.701Z" fill="#763D16" stroke="#763D16" stroke-width="0.16524"/>
<path d="M17.1956 21.1548L18.15 21.4478L20.1567 22.2661L17.1956 21.1548Z" fill="#E2761B" stroke="#E2761B" stroke-width="0.16524"/>
<path d="M23.578 14.1054L24.0667 12.701L24.4865 13.0106L23.578 14.1054ZM23.578 14.1054L19.6163 12.8503L20.5593 12.3914L23.578 14.1054Z" fill="#763D16" stroke="#763D16" stroke-width="0.16524"/>
<path d="M21.5023 8.08423L20.5593 12.3914L19.6163 12.8503L21.5023 8.08423Z" fill="#763D16" stroke="#763D16" stroke-width="0.16524"/>
<path d="M24.3771 10.8875L20.5592 12.3914L21.5022 8.08423L24.3771 10.8875Z" fill="#763D16" stroke="#763D16" stroke-width="0.16524"/>
<path d="M21.5022 8.08417L25.4868 7.64185L24.3771 10.8874L21.5022 8.08417Z" fill="#763D16" stroke="#763D16" stroke-width="0.16524"/>
<path d="M23.578 14.1054L22.2498 14.9901L19.6163 12.8503L23.578 14.1054Z" fill="#F6851B" stroke="#F6851B" stroke-width="0.16524"/>
<path d="M25.3143 4.54004L25.4868 7.64184L21.5022 8.08417L25.3143 4.54004Z" fill="#763D16" stroke="#763D16" stroke-width="0.16524"/>
<path d="M25.3144 4.54004L17.3508 10.1078L17.2473 6.33145L25.3144 4.54004Z" fill="#E2761B" stroke="#E2761B" stroke-width="0.16524"/>
<path d="M11.3251 5.87793L17.2474 6.33131L17.3509 10.1077L11.3251 5.87793Z" fill="#F6851B" stroke="#F6851B" stroke-width="0.16524"/>
<path d="M19.6163 12.8503L17.3508 10.1079L21.5022 8.08423L19.6163 12.8503Z" fill="#763D16" stroke="#763D16" stroke-width="0.16524"/>
<path d="M19.6163 12.8503L22.2498 14.9901L18.5526 15.3826L19.6163 12.8503Z" fill="#E4761B" stroke="#E4761B" stroke-width="0.16524"/>
<path d="M18.5526 15.3826L17.3508 10.1079L19.6163 12.8503L18.5526 15.3826Z" fill="#E4761B" stroke="#E4761B" stroke-width="0.16524"/>
<path d="M21.5022 8.08417L17.3508 10.1078L25.3144 4.54004L21.5022 8.08417Z" fill="#763D16" stroke="#763D16" stroke-width="0.16524"/>
<path d="M11.3767 22.1778L13.2569 24.0632L10.6982 21.824L11.3767 22.1778Z" fill="#C0AD9E" stroke="#C0AD9E" stroke-width="0.16524"/>
<path d="M20.1567 22.2663L21.048 19.0096L22.8132 18.7664L20.1567 22.2663Z" fill="#CD6116" stroke="#CD6116" stroke-width="0.16524"/>
<path d="M3.75232 13.1047L7.00674 9.81494L4.17206 12.7122L3.75232 13.1047Z" fill="#E2761B" stroke="#E2761B" stroke-width="0.16524"/>
<path d="M22.8133 18.7662L21.0481 19.0094L22.2498 14.9898L22.8133 18.7662ZM17.3509 10.1077L14.1828 10.0081L11.3251 5.87793L17.3509 10.1077Z" fill="#F6851B" stroke="#F6851B" stroke-width="0.16524"/>
<path d="M22.2498 14.99L21.0481 19.0096L20.9503 17.0468L22.2498 14.99Z" fill="#E4751F" stroke="#E4751F" stroke-width="0.16524"/>
<path d="M18.5526 15.3826L22.2498 14.99L20.9503 17.0468L18.5526 15.3826Z" fill="#CD6116" stroke="#CD6116" stroke-width="0.16524"/>
<path d="M14.1826 10.0083L17.3508 10.1078L18.5525 15.3825L14.1826 10.0083Z" fill="#F6851B" stroke="#F6851B" stroke-width="0.16524"/>
<path d="M14.1827 10.0084L5.63265 2.40039L11.325 5.87817L14.1827 10.0084ZM11.3193 23.3334L3.89044 25.545L2.40698 20.0989L11.3193 23.3334Z" fill="#E4761B" stroke="#E4761B" stroke-width="0.16524"/>
<path d="M4.85645 14.4648L7.66237 12.3472L10.0141 12.8724L4.85645 14.4648Z" fill="#763D16" stroke="#763D16" stroke-width="0.16524"/>
<path d="M10.0139 12.8724L7.66223 12.3471L8.92145 7.34888L10.0139 12.8724Z" fill="#763D16" stroke="#763D16" stroke-width="0.16524"/>
<path d="M4.172 12.7121L7.66216 12.3472L4.85623 14.4648L4.172 12.7121Z" fill="#763D16" stroke="#763D16" stroke-width="0.16524"/>
<path d="M20.9503 17.0468L19.5013 16.3446L18.5526 15.3826L20.9503 17.0468Z" fill="#CD6116" stroke="#CD6116" stroke-width="0.16524"/>
<path d="M4.17229 12.7121L3.92505 11.457L7.66245 12.3472L4.17229 12.7121Z" fill="#763D16" stroke="#763D16" stroke-width="0.16524"/>
<path d="M19.2024 17.9258L19.5014 16.3445L20.9503 17.0467L19.2024 17.9258Z" fill="#233447" stroke="#233447" stroke-width="0.16524"/>
<path d="M21.0481 19.0097L19.2024 17.926L20.9503 17.0469L21.0481 19.0097Z" fill="#F6851B" stroke="#F6851B" stroke-width="0.16524"/>
<path d="M7.66239 12.3471L3.92498 11.457L3.62024 10.4009L7.66239 12.3471ZM8.9216 7.34888L7.66239 12.3471L3.62024 10.4009L8.9216 7.34888ZM8.9216 7.34888L14.1827 10.0084L10.0141 12.8724L8.9216 7.34888Z" fill="#763D16" stroke="#763D16" stroke-width="0.16524"/>
<path d="M10.0139 12.8724L14.1826 10.0083L16.0398 15.4655L10.0139 12.8724ZM16.0398 15.4655L10.2784 15.3494L10.0139 12.8724L16.0398 15.4655Z" fill="#E4761B" stroke="#E4761B" stroke-width="0.16524"/>
<path d="M4.85645 14.4647L10.0141 12.8724L10.2786 15.3494L4.85645 14.4647ZM18.5526 15.3825L16.0399 15.4655L14.1827 10.0083L18.5526 15.3825Z" fill="#F6851B" stroke="#F6851B" stroke-width="0.16524"/>
<path d="M19.5013 16.3446L19.2023 17.9259L18.5526 15.3826L19.5013 16.3446Z" fill="#CD6116" stroke="#CD6116" stroke-width="0.16524"/>
<path d="M5.63281 2.40039L14.1828 10.0084L8.92173 7.3489L5.63281 2.40039Z" fill="#763D16" stroke="#763D16" stroke-width="0.16524"/>
<path d="M2.40698 20.099L9.6173 19.8115L11.3193 23.3335L2.40698 20.099Z" fill="#E4761B" stroke="#E4761B" stroke-width="0.16524"/>
<path d="M11.3193 23.3334L9.61731 19.8114L13.1592 19.6455L11.3193 23.3334Z" fill="#CD6116" stroke="#CD6116" stroke-width="0.16524"/>
<path d="M19.2023 17.9258L21.048 19.0095L22.0657 21.3151L19.2023 17.9258ZM10.2785 15.3492L2.40698 20.0987L4.85642 14.4646L10.2785 15.3492ZM9.6173 19.8112L2.40698 20.0987L10.2785 15.3492L9.6173 19.8112ZM18.5526 15.3824L19.0241 17.0301L16.7471 17.1573L18.5526 15.3824ZM16.7471 17.1573L16.0399 15.4654L18.5526 15.3824L16.7471 17.1573Z" fill="#F6851B" stroke="#F6851B" stroke-width="0.16524"/>
<path d="M13.2569 24.0631L11.3192 23.3333L18.058 24.4225L13.2569 24.0631Z" fill="#C0AD9E" stroke="#C0AD9E" stroke-width="0.16524"/>
<path d="M4.85629 14.4649L3.75232 13.1047L4.17206 12.7122L4.85629 14.4649Z" fill="#763D16" stroke="#763D16" stroke-width="0.16524"/>
<path d="M18.8228 23.6152L18.058 24.4225L11.3192 23.3333L18.8228 23.6152Z" fill="#D7C1B3" stroke="#D7C1B3" stroke-width="0.16524"/>
<path d="M19.185 21.636L11.3192 23.3334L13.1592 19.6455L19.185 21.636Z" fill="#E4761B" stroke="#E4761B" stroke-width="0.16524"/>
<path d="M11.3192 23.3332L19.185 21.6357L18.8228 23.6151L11.3192 23.3332Z" fill="#D7C1B3" stroke="#D7C1B3" stroke-width="0.16524"/>
<path d="M3.62007 10.4008L3.36133 6.14893L8.92143 7.34873L3.62007 10.4008ZM4.17206 12.7119L3.40733 11.9655L3.92481 11.4568L4.17206 12.7119Z" fill="#763D16" stroke="#763D16" stroke-width="0.16524"/>
<path d="M14.7518 16.5601L16.0398 15.4653L15.8558 18.1414L14.7518 16.5601Z" fill="#CD6116" stroke="#CD6116" stroke-width="0.16524"/>
<path d="M16.0397 15.4653L14.7518 16.5601L12.8773 17.4945L16.0397 15.4653Z" fill="#CD6116" stroke="#CD6116" stroke-width="0.16524"/>
<path d="M22.0658 21.3153L21.7151 21.0665L19.2024 17.926L22.0658 21.3153Z" fill="#F6851B" stroke="#F6851B" stroke-width="0.16524"/>
<path d="M12.8775 17.4946L10.2786 15.3494L16.0399 15.4655L12.8775 17.4946Z" fill="#CD6116" stroke="#CD6116" stroke-width="0.16524"/>
<path d="M15.8558 18.1414L16.0398 15.4653L16.7471 17.1572L15.8558 18.1414Z" fill="#E4751F" stroke="#E4751F" stroke-width="0.16524"/>
<path d="M3.15442 10.8211L3.62016 10.4009L3.9249 11.4569L3.15442 10.8211Z" fill="#763D16" stroke="#763D16" stroke-width="0.16524"/>
<path d="M15.8557 18.1416L12.8773 17.4947L14.7518 16.5603L15.8557 18.1416Z" fill="#233447" stroke="#233447" stroke-width="0.16524"/>
<path d="M8.92143 7.3489L3.36133 6.14909L5.63252 2.40039L8.92143 7.3489Z" fill="#763D16" stroke="#763D16" stroke-width="0.16524"/>
<path d="M18.058 24.4224L18.3742 25.2517L13.2568 24.063L18.058 24.4224Z" fill="#C0AD9E" stroke="#C0AD9E" stroke-width="0.16524"/>
<path d="M13.1591 19.6454L12.8773 17.4946L15.8557 18.1415L13.1591 19.6454Z" fill="#F6851B" stroke="#F6851B" stroke-width="0.16524"/>
<path d="M10.2786 15.3494L12.8775 17.4946L13.1592 19.6454L10.2786 15.3494Z" fill="#E4751F" stroke="#E4751F" stroke-width="0.16524"/>
<path d="M16.7471 17.1574L19.0241 17.0302L21.715 21.0664L16.7471 17.1574ZM10.2785 15.3494L13.1592 19.6454L9.61731 19.8113L10.2785 15.3494Z" fill="#F6851B" stroke="#F6851B" stroke-width="0.16524"/>
<path d="M16.7471 17.1575L19.576 21.2987L15.8558 18.1416L16.7471 17.1575Z" fill="#E4751F" stroke="#E4751F" stroke-width="0.16524"/>
<path d="M15.8558 18.1414L19.576 21.2985L19.185 21.6357L15.8558 18.1414Z" fill="#F6851B" stroke="#F6851B" stroke-width="0.16524"/>
<path d="M19.185 21.636L13.1592 19.6455L15.8559 18.1416L19.185 21.636ZM21.715 21.0665L19.576 21.2987L16.7471 17.1575L21.715 21.0665Z" fill="#F6851B" stroke="#F6851B" stroke-width="0.16524"/>
<path d="M22.2786 23.0127L21.3586 24.7875L18.3745 25.252L22.2786 23.0127ZM18.3745 25.252L18.0582 24.4226L18.823 23.6154L18.3745 25.252Z" fill="#C0AD9E" stroke="#C0AD9E" stroke-width="0.16524"/>
<path d="M18.8228 23.6154L19.3862 23.3997L18.3743 25.252L18.8228 23.6154ZM18.3743 25.252L19.3862 23.3997L22.2784 23.0127L18.3743 25.252Z" fill="#C0AD9E" stroke="#C0AD9E" stroke-width="0.16524"/>
<path d="M21.7149 21.0664L22.4222 21.4811L20.2717 21.7299L21.7149 21.0664Z" fill="#161616" stroke="#161616" stroke-width="0.16524"/>
<path d="M20.2717 21.7299L19.5759 21.2986L21.7149 21.0664L20.2717 21.7299ZM20.0244 22.0561L22.6406 21.752L22.2784 23.0126L20.0244 22.0561Z" fill="#161616" stroke="#161616" stroke-width="0.16524"/>
<path d="M22.2785 23.0128L19.3864 23.3999L20.0246 22.0563L22.2785 23.0128ZM19.3864 23.3999L18.8229 23.6155L19.1851 21.6361L19.3864 23.3999ZM19.1851 21.6361L19.5761 21.2988L20.2718 21.7301L19.1851 21.6361ZM22.4223 21.4813L22.6408 21.7522L20.0246 22.0563L22.4223 21.4813Z" fill="#161616" stroke="#161616" stroke-width="0.16524"/>
<path d="M20.0244 22.0562L20.2717 21.73L22.4221 21.4812L20.0244 22.0562ZM19.1849 21.636L20.0244 22.0562L19.3862 23.3998L19.1849 21.636Z" fill="#161616" stroke="#161616" stroke-width="0.16524"/>
<path d="M20.2717 21.7297L20.0244 22.0559L19.1849 21.6357L20.2717 21.7297Z" fill="#161616" stroke="#161616" stroke-width="0.16524"/>
</svg>
