<svg width="39" height="39" viewBox="0 0 39 39" fill="none" xmlns="http://www.w3.org/2000/svg">
<circle opacity="0.4" cx="19.5" cy="19.5" r="18.5" stroke="#B7ABF7" stroke-width="2"/>
<circle opacity="0.1" cx="19.5" cy="19.1621" r="15.5" fill="#B7ABF7"/>
<path d="M25.2259 24.7179H16.9128C15.1097 24.7179 13.647 23.2552 13.647 21.452V16.5786C13.647 14.7755 15.1097 13.3127 16.9128 13.3127H25.2259C27.029 13.3127 28.4918 14.7755 28.4918 16.5786V17.6214C28.4918 17.9183 28.2456 18.1645 27.9487 18.1645H26.4859C26.2325 18.1645 26.0008 18.2586 25.8342 18.4324L25.827 18.4397C25.6242 18.6352 25.5301 18.9031 25.5518 19.1782C25.5952 19.6562 26.0515 20.04 26.5728 20.04H27.9487C28.2456 20.04 28.4918 20.2862 28.4918 20.5831V21.4448C28.4918 23.2551 27.029 24.7179 25.2259 24.7179ZM16.9128 14.399C15.7108 14.399 14.7332 15.3765 14.7332 16.5786V21.452C14.7332 22.6541 15.7108 23.6317 16.9128 23.6317H25.2259C26.428 23.6317 27.4056 22.6541 27.4056 21.452V21.1334H26.5728C25.4794 21.1334 24.5525 20.3224 24.4656 19.2796C24.4077 18.6858 24.6249 18.0993 25.0594 17.6721C25.4359 17.2883 25.9428 17.0783 26.4859 17.0783H27.4056V16.5786C27.4056 15.3765 26.428 14.399 25.2259 14.399H16.9128Z" fill="white"/>
<path d="M14.1901 17.7724C13.8932 17.7724 13.647 17.5262 13.647 17.2293V13.9201C13.647 12.8411 14.3277 11.8635 15.3342 11.4797L21.0839 9.30725C21.6777 9.08277 22.3366 9.16246 22.8508 9.52453C23.3721 9.8866 23.6763 10.4731 23.6763 11.1031V13.8549C23.6763 14.1518 23.4301 14.398 23.1332 14.398C22.8363 14.398 22.5901 14.1518 22.5901 13.8549V11.1031C22.5901 10.828 22.4597 10.5745 22.228 10.4152C21.9963 10.2559 21.7211 10.2197 21.4604 10.3211L15.7108 12.4935C15.1242 12.718 14.7259 13.2901 14.7259 13.9201V17.2293C14.7332 17.5335 14.487 17.7724 14.1901 17.7724Z" fill="white"/>
<path d="M26.5725 21.1316C25.4791 21.1316 24.5522 20.3205 24.4653 19.2778C24.4073 18.6767 24.6246 18.0902 25.0591 17.663C25.4284 17.2864 25.9353 17.0764 26.4784 17.0764H27.9846C28.7015 17.0981 29.2518 17.6629 29.2518 18.3581V19.8499C29.2518 20.545 28.7015 21.1098 28.0063 21.1316H26.5725ZM27.9701 18.1626H26.4856C26.2322 18.1626 26.0004 18.2568 25.8339 18.4306C25.6239 18.6333 25.5225 18.9085 25.5515 19.1836C25.5949 19.6616 26.0511 20.0454 26.5725 20.0454H27.9918C28.086 20.0454 28.1729 19.9585 28.1729 19.8499V18.3581C28.1729 18.2495 28.086 18.1699 27.9701 18.1626Z" fill="white"/>
<path d="M22.5173 17.4754H17.4484C17.1515 17.4754 16.9053 17.2292 16.9053 16.9323C16.9053 16.6354 17.1515 16.3892 17.4484 16.3892H22.5173C22.8142 16.3892 23.0604 16.6354 23.0604 16.9323C23.0604 17.2292 22.8142 17.4754 22.5173 17.4754Z" fill="white"/>
<path d="M12.7051 20.6044C13.0049 20.348 13.4958 20.348 13.8 20.6044L14.4864 21.1953C14.6168 21.3082 14.8601 21.3995 15.0339 21.3995H15.7725C16.2331 21.3995 16.6111 21.7775 16.6111 22.238V22.9766C16.6111 23.1461 16.7023 23.3937 16.8153 23.5241L17.4062 24.2106C17.6625 24.5104 17.6625 25.0013 17.4062 25.3055L16.8153 25.992C16.7023 26.1223 16.6111 26.3656 16.6111 26.5394V27.278C16.6111 27.7386 16.2331 28.1166 15.7725 28.1166H15.0339C14.8644 28.1166 14.6168 28.2078 14.4864 28.3208L13.8 28.9117C13.5002 29.168 13.0092 29.168 12.7051 28.9117L12.0186 28.3208C11.8882 28.2078 11.6449 28.1166 11.4711 28.1166H10.7195C10.2589 28.1166 9.88093 27.7386 9.88093 27.278V26.5351C9.88093 26.3656 9.78969 26.1223 9.68107 25.992L9.09452 25.3011C8.84252 25.0013 8.84252 24.5147 9.09452 24.2149L9.68107 23.5241C9.78969 23.3937 9.88093 23.1504 9.88093 22.981V22.2337C9.88093 21.7731 10.2589 21.3951 10.7195 21.3951H11.4711C11.6406 21.3951 11.8882 21.3039 12.0186 21.1909L12.7051 20.6044Z" fill="#2C2D31" stroke="white" stroke-linecap="round" stroke-linejoin="round"/>
<path d="M11.6752 24.7536L12.7223 25.805L14.8208 23.7021" fill="#2C2D31"/>
<path d="M11.6752 24.7536L12.7223 25.805L14.8208 23.7021" stroke="white" stroke-linecap="round" stroke-linejoin="round"/>
</svg>
